<!DOCTYPE svg PUBLIC "-//W3C//DTD SVG 20010904//EN" "http://www.w3.org/TR/2001/REC-SVG-20010904/DTD/svg10.dtd">
<svg version="1.0" xmlns="http://www.w3.org/2000/svg" width="1064px" height="1200px" viewBox="0 0 10640 12000" preserveAspectRatio="xMidYMid meet">
<g id="layer101" fill="#ea524a" stroke="none">
 <path d="M0 6000 l0 -6000 5320 0 5320 0 0 6000 0 6000 -5320 0 -5320 0 0 -6000z"/>
 </g>
<g id="layer102" fill="#fffdfd" stroke="none">
 <path d="M0 6000 l0 -6000 5320 0 5320 0 0 6000 0 6000 -5320 0 -5320 0 0 -6000z m6106 5673 c134 -67 176 -93 180 -110 3 -12 -2 -98 -11 -190 -9 -92 -20 -208 -25 -258 -10 -105 -26 -257 -40 -370 -5 -44 -14 -125 -20 -180 -5 -55 -17 -165 -25 -245 -13 -124 -35 -347 -76 -755 -5 -49 -13 -137 -19 -195 -5 -58 -12 -116 -15 -130 -3 -14 -9 -72 -15 -130 -15 -147 -25 -247 -54 -545 -14 -143 -30 -303 -36 -355 -19 -183 -21 -205 -13 -216 4 -5 37 -20 73 -33 110 -39 139 -46 149 -36 6 6 13 42 16 80 3 39 10 106 15 150 44 375 59 528 105 1039 14 153 30 286 35 296 9 17 238 100 278 100 25 0 209 -93 245 -124 23 -21 24 -22 16 -156 -19 -312 -29 -519 -38 -740 -6 -129 -15 -309 -20 -400 -6 -91 -13 -219 -16 -285 -3 -66 -9 -135 -12 -152 -5 -31 -3 -34 43 -53 26 -12 86 -34 133 -50 47 -16 151 -52 231 -80 80 -29 183 -65 230 -80 47 -16 144 -50 215 -75 171 -61 349 -124 405 -142 25 -8 86 -30 135 -48 50 -18 117 -42 150 -53 125 -42 192 -65 255 -89 61 -23 65 -24 77 -7 7 10 13 23 13 28 0 12 26 185 60 406 20 132 28 183 49 345 6 44 15 109 21 145 24 152 111 734 130 875 13 96 74 505 100 670 5 33 12 80 15 105 3 25 10 72 15 105 5 33 17 112 25 175 38 271 67 435 78 442 15 10 36 15 107 27 30 5 101 16 158 26 l103 17 135 -79 c74 -43 140 -86 145 -96 7 -13 1 -86 -20 -250 -17 -128 -47 -358 -66 -512 -20 -154 -43 -332 -51 -395 -8 -63 -19 -151 -24 -195 -5 -44 -13 -111 -19 -150 -5 -38 -15 -113 -21 -165 -6 -52 -18 -142 -25 -200 -8 -58 -21 -163 -30 -235 -16 -130 -22 -179 -49 -395 -8 -63 -22 -173 -31 -245 -16 -130 -22 -181 -49 -395 -8 -63 -22 -173 -31 -245 -8 -71 -20 -161 -25 -200 -5 -38 -17 -126 -25 -195 -9 -69 -22 -174 -30 -235 -8 -60 -17 -136 -20 -168 -10 -87 -86 -235 -156 -305 -14 -13 -73 -41 -134 -62 -60 -21 -148 -52 -195 -68 -47 -17 -130 -44 -185 -60 -55 -17 -158 -49 -230 -71 -135 -41 -240 -69 -360 -96 -38 -9 -86 -20 -105 -25 -19 -5 -62 -15 -95 -21 -33 -6 -78 -15 -100 -20 -181 -42 -372 -69 -840 -119 -96 -11 -718 -16 -733 -6 -13 8 -240 26 -254 21 -14 -6 -32 -72 -48 -180 -4 -27 -12 -70 -18 -95 -6 -25 -16 -72 -22 -105 -6 -33 -18 -89 -25 -125 -8 -36 -17 -78 -20 -95 -3 -16 -12 -57 -20 -90 -28 -127 -111 -529 -130 -635 -23 -131 -43 -234 -55 -285 -6 -27 -18 -86 -25 -130 -8 -44 -23 -125 -34 -180 -11 -55 -25 -122 -30 -150 -5 -27 -21 -108 -35 -180 -84 -424 -98 -498 -111 -570 -7 -44 -27 -145 -43 -225 -17 -80 -33 -163 -36 -185 -4 -22 -15 -80 -26 -130 -11 -49 -38 -187 -60 -305 -53 -274 -114 -591 -145 -745 -13 -66 -31 -160 -40 -210 -32 -173 -38 -180 -149 -170 -39 3 -106 13 -150 21 -43 8 -101 14 -130 14 -28 0 -68 5 -88 10 -20 6 -78 15 -130 21 -51 5 -133 14 -183 19 -49 5 -108 14 -130 20 -22 5 -61 10 -87 10 -25 0 -68 4 -95 9 -26 6 -111 17 -188 26 -77 9 -165 21 -195 26 -30 5 -95 13 -145 18 -79 9 -164 20 -440 61 -66 10 -172 27 -308 51 -33 6 -91 14 -130 19 -96 12 -266 38 -352 55 -65 12 -126 22 -365 61 -138 22 -243 42 -390 74 -44 10 -322 53 -450 70 -93 13 -108 20 -172 86 -75 79 -158 177 -158 188 0 12 36 126 58 181 8 22 27 78 43 125 15 47 51 150 79 230 28 80 57 165 64 190 8 25 54 162 104 305 49 143 99 289 111 325 12 36 26 79 32 95 6 17 26 75 44 130 19 55 57 165 85 245 28 80 57 165 65 190 7 25 43 131 80 235 37 105 73 210 81 235 15 48 63 189 144 420 27 80 56 165 64 190 7 25 53 158 100 295 48 138 104 302 126 365 21 63 44 129 49 145 6 17 29 84 51 150 22 66 45 134 51 150 6 17 26 75 45 130 18 55 57 165 85 245 59 167 125 380 144 460 79 338 92 471 100 1000 3 212 10 527 15 700 6 173 15 495 20 715 6 220 15 555 20 745 17 597 19 648 25 950 4 162 11 309 16 325 9 31 188 192 251 227 28 16 34 16 67 2 20 -9 63 -25 96 -36 33 -11 76 -28 95 -38 19 -9 68 -27 108 -40 40 -13 78 -31 86 -39 14 -16 14 -12 31 -1916 9 -1011 16 -1276 31 -1282 13 -5 103 7 474 63 52 8 127 18 165 24 277 39 462 65 655 95 173 26 202 30 415 59 61 8 124 20 141 26 29 10 31 13 43 103 6 51 18 139 26 197 14 106 39 296 50 380 3 25 12 97 21 160 8 63 19 153 24 200 6 47 12 97 16 112 3 14 9 61 14 105 5 43 16 132 25 198 8 66 20 158 25 205 5 47 12 94 15 105 2 12 9 59 14 105 11 87 15 123 77 575 47 348 63 475 75 570 5 44 11 90 14 102 3 12 10 61 15 110 9 79 26 211 46 360 4 29 14 58 23 66 9 7 61 39 116 72 55 32 120 71 145 86 25 15 53 28 63 28 10 1 97 -38 193 -86z"/>
 <path d="M3027 6168 c-28 -59 -48 -110 -77 -203 -7 -22 -18 -53 -25 -70 -7 -16 -28 -70 -45 -120 -18 -49 -50 -137 -71 -195 -20 -58 -42 -118 -48 -135 -6 -16 -27 -76 -48 -133 -31 -88 -34 -105 -22 -116 13 -12 66 -34 319 -131 201 -77 743 -242 980 -299 30 -7 89 -23 130 -34 120 -33 430 -103 561 -127 329 -60 486 -80 504 -65 8 7 17 33 21 58 3 26 17 92 29 147 13 55 26 127 30 160 4 33 16 105 26 160 39 198 48 260 41 266 -6 5 -198 47 -367 81 -27 5 -88 20 -135 33 -47 13 -166 44 -265 70 -99 25 -207 55 -240 65 -237 76 -442 149 -570 205 -27 12 -66 28 -85 36 -179 73 -465 242 -568 334 -27 25 -52 45 -54 45 -3 0 -12 -15 -21 -32z"/>
 <path d="M2391 4368 c-12 -33 -76 -214 -122 -348 -22 -63 -51 -144 -64 -180 -13 -36 -35 -99 -49 -140 -13 -41 -45 -133 -71 -205 -25 -71 -59 -168 -75 -215 -35 -103 -163 -465 -209 -592 -33 -91 -30 -97 64 -117 28 -5 73 -15 100 -20 28 -6 95 -22 150 -36 55 -13 152 -36 215 -50 128 -29 227 -52 280 -65 19 -5 69 -16 110 -25 41 -9 113 -25 160 -36 47 -11 108 -24 135 -29 28 -4 124 -24 215 -43 166 -35 368 -75 515 -102 44 -8 141 -26 215 -39 74 -14 185 -33 245 -42 61 -9 164 -25 230 -36 198 -33 202 -33 213 -12 5 11 12 35 15 54 4 19 14 67 22 105 9 39 20 90 24 115 5 25 16 77 26 115 9 39 20 91 25 116 5 25 13 64 18 85 6 21 22 91 36 154 14 63 35 156 46 205 12 50 28 122 35 160 8 39 19 88 24 110 5 22 14 65 21 95 6 30 15 71 20 90 4 19 16 69 25 110 9 41 20 93 26 115 5 22 10 53 11 70 l3 30 -95 18 c-204 38 -368 68 -445 82 -44 8 -116 22 -160 31 -44 9 -111 22 -150 29 -38 7 -106 21 -150 33 -90 23 -277 67 -345 80 -25 5 -83 19 -130 31 -196 50 -290 74 -375 97 -49 13 -96 24 -104 24 -15 0 -61 14 -296 86 -66 21 -133 41 -150 45 -16 4 -70 22 -118 38 -48 17 -92 31 -98 31 -5 0 -13 -10 -18 -22z"/>
 </g>

</svg>